<svg width="21" height="20" viewBox="0 0 21 20" fill="none" xmlns="http://www.w3.org/2000/svg">
<g clip-path="url(#clip0_1_4335)">
<path d="M17.9147 9.65L10.384 2.15001C10.0827 1.85001 9.66437 1.66667 9.20416 1.66667H3.34695C2.42653 1.66667 1.67346 2.41667 1.67346 3.33334V9.16667C1.67346 9.625 1.85755 10.0417 2.16714 10.35L9.69784 17.85C9.99906 18.15 10.4174 18.3333 10.8776 18.3333C11.3379 18.3333 11.7562 18.15 12.0575 17.8417L17.9147 12.0083C18.2243 11.7083 18.4083 11.2917 18.4083 10.8333C18.4083 10.375 18.2159 9.95 17.9147 9.65ZM10.8776 16.675L3.34695 9.16667V3.33334H9.20416V3.32501L16.7349 10.825L10.8776 16.675Z" fill="#BD0017"/>
<path d="M5.43883 6.66667C6.13201 6.66667 6.69395 6.10703 6.69395 5.41667C6.69395 4.72632 6.13201 4.16667 5.43883 4.16667C4.74565 4.16667 4.18372 4.72632 4.18372 5.41667C4.18372 6.10703 4.74565 6.66667 5.43883 6.66667Z" fill="#BD0017"/>
</g>
<defs>
<clipPath id="clip0_1_4335">
<rect width="20.0819" height="20" fill="white"/>
</clipPath>
</defs>
</svg>
